<!DOCTYPE svg PUBLIC "-//W3C//DTD SVG 20010904//EN" "http://www.w3.org/TR/2001/REC-SVG-20010904/DTD/svg10.dtd">
<svg version="1.0" xmlns="http://www.w3.org/2000/svg" width="512px" height="512px" viewBox="0 0 5120 5120" preserveAspectRatio="xMidYMid meet">
<g id="layer101" fill="green" stroke="none">
 <path d="M4284 5111 c-18 -5 -51 -19 -75 -33 -135 -76 -3511 -2276 -3545 -2309 -62 -60 -88 -120 -92 -210 -4 -67 0 -85 23 -137 14 -32 45 -78 68 -100 38 -37 3478 -2247 3566 -2291 52 -26 96 -32 149 -20 140 30 206 165 154 314 -11 32 -276 429 -735 1104 l-719 1054 4 66 3 66 714 1060 c432 641 722 1080 733 1110 34 96 19 197 -40 258 -52 55 -141 84 -208 68z m-550 -828 c-10 -16 -240 -359 -512 -763 -300 -446 -500 -753 -509 -780 -8 -25 -17 -81 -21 -125 l-7 -80 -828 -3 c-658 -2 -828 0 -825 10 4 12 2694 1765 2712 1767 4 1 0 -11 -10 -26z"/>
 </g>

</svg>