<!DOCTYPE svg PUBLIC "-//W3C//DTD SVG 20010904//EN" "http://www.w3.org/TR/2001/REC-SVG-20010904/DTD/svg10.dtd">
<svg version="1.0" xmlns="http://www.w3.org/2000/svg" width="225px" height="225px" viewBox="0 0 2250 2250" preserveAspectRatio="xMidYMid meet">
<g id="layer101" fill="#2d9dd8" stroke="none">
<path d="M942 2235 c-475 -86 -843 -455 -922 -925 -16 -96 -16 -274 0 -370 112 -664 779 -1082 1428 -894 185 54 329 140 473 283 105 105 157 176 217 297 83 167 112 294 112 499 0 205 -29 332 -112 499 -60 121 -112 192 -217 297 -136 135 -258 212 -429 269 -173 58 -383 75 -550 45z"/>
</g>
<g id="layer102" fill="#5ab8e9" stroke="none">
<path d="M1010 2145 l0 -105 -105 0 c-105 0 -105 0 -105 80 0 44 -3 80 -7 80 -5 0 -7 -36 -5 -80 4 -80 4 -80 -102 -80 -106 0 -106 0 -106 24 0 14 -4 28 -10 31 -6 4 -10 -7 -10 -25 0 -31 -1 -32 -40 -28 -30 3 -46 -2 -63 -17 -12 -11 -18 -17 -13 -12 6 4 34 7 63 7 53 0 53 0 53 -105 l0 -105 -105 0 c-105 0 -105 0 -105 57 0 50 4 61 32 93 33 35 33 35 -7 -2 -37 -35 -39 -39 -36 -93 3 -57 3 -57 -48 -54 -28 2 -54 0 -57 -4 -4 -4 18 -7 49 -7 57 0 57 0 57 -105 l0 -105 -104 0 c-68 0 -107 4 -112 11 -4 8 -12 3 -20 -12 -15 -28 -19 -51 -4 -29 7 10 10 -19 10 -92 0 -108 0 -108 -34 -108 -24 0 -36 5 -39 18 -4 13 -5 11 -6 -5 -1 -20 4 -23 39 -23 40 0 40 0 40 -105 0 -105 0 -105 -49 -105 -30 0 -51 5 -54 13 -3 6 -5 -6 -5 -28 0 -22 3 -31 5 -20 3 17 10 20 53 17 50 -4 50 -4 50 -108 0 -104 0 -104 -39 -104 -29 0 -41 5 -45 17 -4 14 -4 14 -3 -2 2 -16 11 -21 45 -23 42 -3 42 -3 42 -108 0 -68 -4 -103 -10 -99 -14 9 -12 -5 5 -35 12 -22 14 -23 20 -8 6 16 21 18 111 18 l104 0 0 -105 c0 -104 0 -104 -62 -107 -56 -3 -60 -4 -43 -18 11 -9 16 -10 11 -3 -5 10 6 13 43 13 51 0 51 0 51 -57 0 -57 0 -57 -40 -18 -22 21 -40 37 -40 34 0 -2 35 -38 77 -79 43 -41 63 -59 45 -40 -29 32 -32 42 -32 98 0 62 0 62 105 62 l105 0 0 -104 c0 -104 0 -104 -56 -108 -30 -1 -60 2 -67 7 -6 6 -5 2 2 -8 8 -9 16 -15 19 -12 3 2 11 -3 19 -13 8 -9 12 -11 8 -4 -4 8 5 12 34 12 40 0 41 -1 41 -36 0 -21 4 -33 10 -29 5 3 10 19 10 36 0 29 0 29 106 29 105 0 105 0 102 -85 -2 -47 0 -85 5 -85 4 0 7 38 7 85 0 85 0 85 105 85 l105 0 0 -110 c0 -110 0 -110 53 -108 52 2 52 2 5 5 -48 4 -48 4 -48 47 0 24 3 71 6 105 7 61 7 61 110 61 l104 0 0 -104 c0 -105 0 -105 -47 -109 -48 -3 -48 -3 5 -5 52 -2 52 -2 52 108 l0 110 105 0 c105 0 105 0 105 -85 0 -53 4 -85 11 -85 5 0 7 5 4 10 -4 6 -3 44 0 85 7 75 7 75 112 75 105 0 105 0 101 -39 -2 -22 0 -37 4 -35 5 3 8 21 8 40 0 33 1 34 41 34 38 0 40 -2 28 -17 -8 -9 3 -4 24 11 20 16 37 29 37 30 0 0 -29 -1 -65 -2 -65 -4 -65 -4 -65 102 l0 106 105 0 c104 0 104 0 108 -68 l3 -67 2 68 c2 67 2 67 53 67 37 0 48 -3 43 -12 -5 -8 0 -7 11 2 17 14 13 15 -43 18 -62 3 -62 3 -62 46 0 24 3 71 6 105 7 61 7 61 112 61 104 0 104 0 99 -26 -5 -30 4 -21 21 18 7 17 8 28 2 28 -6 0 -10 43 -10 105 0 105 0 105 45 105 36 0 45 3 44 18 0 10 -3 12 -6 5 -2 -8 -22 -13 -44 -13 -39 0 -39 0 -39 105 0 105 0 105 50 105 28 0 50 5 50 10 0 6 -22 10 -50 10 -50 0 -50 0 -50 105 0 105 0 105 39 105 29 0 41 -5 45 -17 4 -14 4 -14 3 2 -2 16 -11 21 -45 23 -43 3 -43 3 -41 129 1 76 -3 129 -9 135 -8 8 -9 4 -5 -11 5 -20 3 -21 -101 -21 l-106 0 0 106 c0 106 0 106 55 102 34 -2 51 0 45 7 -6 5 -30 8 -55 6 -45 -3 -45 -3 -45 46 0 26 -5 55 -10 63 -7 11 -10 -3 -10 -47 0 -63 0 -63 -105 -63 l-105 0 0 106 c0 106 0 106 60 102 33 -1 60 -3 60 -2 0 0 -14 11 -31 23 -18 13 -29 19 -25 12 5 -7 -4 -11 -28 -11 -33 0 -36 2 -36 29 0 17 -4 32 -9 35 -5 3 -7 -10 -4 -29 5 -35 5 -35 -101 -35 -106 0 -106 0 -106 80 0 47 -4 80 -10 80 -6 0 -10 -33 -10 -80 0 -80 0 -80 -105 -80 l-105 0 0 105 c0 105 0 105 -52 103 -53 -2 -53 -2 -5 -5 47 -4 47 -4 47 -104 l0 -99 -105 0 -105 0 0 99 c0 100 0 100 43 104 40 3 40 4 -10 5 -53 2 -53 2 -53 -103z m-220 -230 l0 -105 -105 0 -105 0 0 105 0 105 105 0 105 0 0 -105z m220 21 c0 -84 0 -84 -34 -105 -26 -16 -50 -21 -105 -21 -71 0 -71 0 -71 105 l0 105 105 0 c105 0 105 0 105 -84z m230 66 c0 -12 -34 -37 -107 -79 -59 -34 -109 -61 -111 -58 -2 2 -1 38 3 79 7 76 7 76 111 76 93 0 104 -2 104 -18z m220 -63 c0 -81 0 -81 -22 -67 -13 8 -60 37 -105 63 -57 33 -83 54 -83 66 0 17 9 19 105 19 105 0 105 0 105 -81z m230 -24 l0 -105 -104 0 c-104 0 -104 0 -110 36 -4 19 -4 66 0 105 7 69 7 69 110 69 l104 0 0 -105z m-460 -30 c0 -75 0 -75 -101 -75 -90 0 -100 2 -97 17 2 12 169 125 196 132 1 1 2 -33 2 -74z m148 3 c113 -67 109 -78 -23 -78 -105 0 -105 0 -105 75 0 87 -15 87 128 3z m-818 -193 l0 -105 -105 0 -105 0 0 105 0 105 105 0 105 0 0 -105z m226 44 c-3 -34 -6 -82 -6 -105 0 -44 0 -44 -100 -44 l-100 0 0 105 0 105 106 0 c107 0 107 0 100 -61z m133 58 c-2 -2 -30 -18 -61 -36 -58 -32 -58 -32 -58 3 0 36 0 36 62 36 34 0 59 -2 57 -3z m91 -102 l0 -105 -100 0 c-60 0 -100 -4 -100 -10 0 -6 34 -10 83 -10 93 0 96 6 -35 -69 -58 -32 -58 -32 -58 87 0 119 0 119 78 165 42 25 89 46 105 46 27 1 27 1 27 -104z m220 66 c0 -42 6 -37 -147 -129 -53 -31 -53 -31 -53 68 0 100 0 100 100 100 100 0 100 0 100 -39z m230 -61 c0 -55 -2 -100 -5 -100 -2 0 -50 28 -105 61 -99 61 -100 62 -100 100 0 39 0 39 105 39 l105 0 0 -100z m230 -5 l0 -105 -105 0 -105 0 0 105 0 105 105 0 105 0 0 -105z m220 0 l0 -105 -105 0 -105 0 0 105 0 105 105 0 105 0 0 -105z m-675 -30 c0 -28 -4 -35 -20 -35 -11 0 -35 -9 -53 -20 -18 -11 -50 -20 -73 -20 -28 0 -38 -4 -33 -12 5 -7 3 -8 -5 -4 -7 5 -10 10 -8 13 7 6 181 111 187 112 3 1 5 -15 5 -34z m150 -46 c40 -24 40 -24 4 -27 -24 -2 -49 4 -70 17 -19 12 -42 21 -51 21 -14 0 -18 8 -18 35 0 38 -14 43 135 -46z m-145 -19 c0 -5 -17 -10 -37 -10 -28 0 -34 3 -23 10 20 13 60 13 60 0z m60 0 c11 -7 7 -10 -17 -10 -18 0 -33 5 -33 10 0 13 30 13 50 0z m120 -36 c0 -2 -18 -13 -40 -24 -40 -20 -40 -20 -40 8 0 26 2 27 40 24 22 -2 40 -6 40 -8z m-1080 -99 l0 -105 -105 0 -105 0 0 105 0 105 105 0 105 0 0 -105z m220 0 l0 -105 -105 0 -105 0 0 105 0 105 105 0 105 0 0 -105z m220 48 c0 -58 0 -58 -81 -105 -44 -27 -91 -48 -105 -48 -22 0 -24 4 -24 44 0 23 3 71 6 105 7 61 7 61 105 61 99 0 99 0 99 -57z m230 18 c0 -35 -3 -39 -32 -45 -43 -8 -68 -33 -68 -67 0 -29 0 -29 -50 2 -51 31 -51 31 47 89 54 32 99 59 101 59 1 1 2 -16 2 -38z m133 -39 c15 -15 39 -31 52 -37 24 -10 24 -11 -25 -37 -50 -28 -50 -28 -50 0 0 32 -21 55 -64 69 -25 8 -29 14 -30 45 -1 37 -1 37 44 11 25 -14 57 -37 73 -51z m-13 58 c0 -20 -1 -20 -30 -5 -16 9 -30 18 -30 20 0 3 14 5 30 5 23 0 30 -4 30 -20z m560 -85 l0 -105 -111 0 -111 0 4 105 3 105 108 0 107 0 0 -105z m220 0 l0 -105 -105 0 -105 0 0 105 0 105 105 0 105 0 0 -105z m230 0 l0 -105 -105 0 -105 0 0 105 0 105 105 0 105 0 0 -105z m-900 49 c0 -46 0 -46 -32 -40 -61 12 -76 55 -26 76 49 19 58 13 58 -36z m68 24 c20 -17 14 -44 -13 -56 -40 -19 -45 -15 -45 34 0 42 1 45 23 38 12 -3 28 -11 35 -16z m152 -78 c0 -99 0 -100 -24 -100 -23 0 -166 78 -166 90 0 3 12 11 28 18 15 7 54 30 87 51 33 22 63 40 68 40 4 1 7 -44 7 -99z m-450 -5 c0 -8 -6 -15 -12 -15 -7 0 -25 -7 -40 -14 -26 -14 -28 -13 -28 5 0 20 29 37 63 38 9 1 17 -6 17 -14z m71 5 c10 -6 19 -19 19 -30 0 -17 -2 -18 -40 -3 -22 9 -40 22 -40 30 0 16 33 17 61 3z m-301 -65 c0 -35 0 -35 -62 -35 -63 0 -63 0 -28 22 19 11 44 27 55 34 30 20 35 17 35 -21z m80 8 c27 -16 50 -31 50 -35 0 -5 -25 -8 -55 -8 -55 0 -55 0 -55 35 0 19 2 35 5 35 3 0 27 -12 55 -27z m367 -40 c-3 -2 -29 -3 -58 -1 l-54 3 55 32 c55 33 55 33 58 2 2 -17 1 -33 -1 -36z m93 32 l55 -35 -62 0 c-63 0 -63 0 -63 35 0 19 3 35 8 35 4 0 32 -16 62 -35z m-310 -5 c0 -28 -2 -30 -41 -30 -33 0 -40 3 -37 17 3 17 42 43 66 43 7 0 12 -13 12 -30z m53 19 c22 -12 37 -28 37 -41 0 -5 -18 -8 -40 -8 -38 0 -40 2 -40 30 0 32 9 36 43 19z m-723 -118 c0 -32 -3 -79 -6 -105 -7 -46 -7 -46 -105 -46 l-99 0 0 105 0 105 105 0 c105 0 105 0 105 -59z m220 47 c0 -10 -163 -113 -201 -126 -5 -2 -9 28 -9 67 0 71 0 71 105 71 77 0 105 -3 105 -12z m220 -68 c0 -79 0 -79 -43 -105 -33 -19 -58 -25 -100 -25 -57 0 -57 0 -57 90 0 87 1 90 28 104 16 9 55 15 100 16 72 0 72 0 72 -80z m165 59 c20 -12 35 -22 33 -24 -2 -1 -42 -25 -90 -53 l-88 -51 0 75 c0 74 0 74 54 74 38 0 66 -7 91 -21z m65 11 c0 -13 -30 -13 -50 0 -11 7 -7 10 18 10 17 0 32 -4 32 -10z m60 0 c-20 -13 -50 -13 -50 0 0 6 15 10 33 10 24 0 28 -3 17 -10z m160 -65 c0 -75 0 -75 -67 -34 -128 77 -120 68 -81 89 21 12 54 19 91 19 57 1 57 1 57 -74z m198 55 c32 -20 32 -20 32 -105 0 -85 0 -85 -62 -85 -47 0 -73 6 -103 23 -40 23 -40 23 -43 105 -3 82 -3 82 70 82 55 0 81 -5 106 -20z m262 -55 c0 -41 -3 -75 -6 -75 -17 0 -214 127 -214 137 0 10 28 13 110 13 110 0 110 0 110 -75z m220 -30 l0 -105 -100 0 c-60 0 -100 -4 -100 -10 0 -6 40 -10 100 -10 l100 0 0 -105 0 -105 -105 0 -105 0 0 220 0 220 105 0 105 0 0 -105z m230 0 l0 -105 -105 0 -105 0 0 105 0 105 105 0 105 0 0 -105z m-1580 -25 c0 -80 0 -80 -100 -80 -60 0 -100 -4 -100 -10 0 -6 40 -10 100 -10 100 0 100 0 100 -29 0 -25 -9 -34 -72 -71 -40 -24 -88 -51 -105 -62 -33 -20 -33 -20 -33 104 0 123 0 123 98 180 53 31 100 57 105 57 4 1 7 -35 7 -79z m450 40 c0 -35 -3 -40 -24 -40 -31 0 -76 -36 -76 -61 0 -25 -17 -24 -64 4 -38 24 -38 24 55 79 52 31 97 56 102 57 4 1 7 -17 7 -39z m116 -16 c52 -31 94 -58 94 -60 0 -9 -66 -44 -82 -44 -11 0 -18 8 -18 18 0 24 -30 51 -66 61 -24 6 -29 13 -32 44 -2 20 0 37 3 37 4 0 49 -25 101 -56z m554 -85 c0 -17 -8 -19 -100 -19 -100 0 -100 0 -100 80 l0 79 100 -60 c71 -43 100 -66 100 -80z m-670 27 c0 -7 -10 -16 -22 -19 -13 -2 -31 -8 -40 -12 -13 -5 -18 -2 -18 9 0 17 31 34 63 35 9 1 17 -5 17 -13z m71 4 c10 -6 19 -19 19 -30 0 -17 -2 -18 -27 -4 -16 7 -33 14 -40 14 -7 0 -10 7 -7 15 7 18 27 19 55 5z m-291 -35 c0 -10 -10 -15 -27 -15 -26 0 -26 1 -7 15 25 19 34 19 34 0z m50 -10 c0 -3 -9 -5 -20 -5 -11 0 -20 7 -20 15 0 13 4 14 20 5 11 -6 20 -13 20 -15z m400 10 c0 -9 -9 -15 -22 -15 -21 0 -21 0 -2 15 24 18 24 18 24 0z m49 -12 c2 -2 -5 -3 -17 -3 -14 0 -22 6 -22 16 0 14 3 15 18 3 9 -7 19 -15 21 -16z m-959 -128 l0 -105 -100 0 -100 0 0 105 0 105 100 0 100 0 0 -105z m295 85 c-38 -25 -45 -25 -45 0 0 16 7 20 38 20 37 0 37 0 7 -20z m165 6 c0 -8 -15 -16 -38 -20 -42 -6 -68 -29 -74 -64 -3 -22 -3 -22 -46 7 -44 28 -44 28 10 60 58 34 148 44 148 17z m106 6 c6 -4 13 -15 17 -25 4 -10 21 -24 38 -31 31 -13 31 -13 -13 -39 -43 -25 -43 -25 -46 9 -4 37 -32 64 -69 64 -14 0 -23 6 -23 15 0 11 11 15 43 15 23 0 47 -4 53 -8z m114 -23 c0 -29 -2 -31 -27 -24 -65 16 -74 55 -13 55 38 0 40 -1 40 -31z m86 20 c8 -13 -13 -34 -43 -44 -20 -6 -23 -3 -23 24 0 28 3 31 29 31 17 0 33 -5 37 -11z m144 -3 c0 -8 -15 -16 -36 -19 -45 -8 -74 -32 -74 -64 0 -28 -6 -29 -50 -1 -25 15 -31 23 -20 26 8 3 32 20 53 38 30 28 45 34 82 34 31 0 45 -4 45 -14z m146 -18 c30 -18 54 -36 54 -39 0 -7 -83 -59 -94 -59 -3 0 -6 15 -6 34 0 39 -28 66 -67 66 -14 0 -23 6 -23 15 0 28 76 19 136 -17z m74 7 c0 -14 -2 -25 -4 -25 -8 0 -76 42 -76 46 0 2 18 4 40 4 36 0 40 -2 40 -25z m220 -65 c0 -49 -3 -90 -6 -90 -3 0 -48 25 -100 56 -89 54 -94 58 -94 90 0 34 0 34 100 34 100 0 100 0 100 -90z m460 -15 l0 -105 -105 0 -105 0 0 105 0 105 105 0 105 0 0 -105z m-1350 40 c0 -8 -8 -15 -17 -15 -10 0 -30 -7 -45 -14 -26 -14 -28 -13 -28 4 0 23 26 39 63 40 17 0 27 -5 27 -15z m64 9 c9 -3 16 -15 16 -26 0 -15 -4 -18 -17 -13 -10 4 -26 10 -35 12 -10 3 -18 12 -18 19 0 15 27 18 54 8z m386 -9 c0 -8 -8 -15 -17 -15 -10 0 -30 -7 -45 -14 -26 -14 -28 -13 -28 4 0 23 26 39 63 40 17 0 27 -5 27 -15z m64 9 c9 -3 16 -15 16 -26 0 -15 -4 -18 -17 -13 -10 4 -26 10 -35 12 -10 3 -18 12 -18 19 0 15 27 18 54 8z m-744 -69 c0 -40 -3 -45 -22 -45 -13 0 -38 -9 -56 -20 -33 -20 -87 -26 -109 -12 -8 5 23 28 85 65 53 31 98 57 100 57 1 0 2 -20 2 -45z m67 16 c27 -17 54 -39 61 -51 7 -12 27 -28 45 -35 32 -14 32 -14 -20 -15 -29 0 -53 4 -53 8 0 11 -46 32 -70 32 -17 0 -20 7 -20 45 0 25 2 45 5 45 3 0 26 -13 52 -29z m383 -36 c0 -65 0 -65 -97 -65 -92 1 -96 2 -67 14 18 8 36 22 41 31 7 12 101 78 121 84 1 1 2 -28 2 -64z m135 -22 c11 -13 34 -28 50 -32 23 -7 6 -9 -67 -10 -98 -1 -98 -1 -98 60 0 61 0 61 48 34 26 -15 56 -39 67 -52z m315 37 c0 -35 -3 -40 -22 -40 -13 0 -38 -9 -56 -20 -21 -13 -49 -20 -80 -19 -46 1 -46 1 -15 10 18 5 38 17 45 27 13 17 105 80 121 81 4 1 7 -17 7 -39z m129 -23 c86 -52 86 -52 32 -55 -30 -2 -57 1 -60 6 -10 15 -48 32 -70 32 -18 0 -21 6 -21 41 0 49 -2 50 119 -24z m-799 8 c0 -34 -4 -45 -15 -45 -26 0 -75 29 -75 45 0 19 39 45 67 45 21 0 23 -5 23 -45z m58 29 c36 -25 26 -53 -25 -68 -22 -7 -23 -4 -23 38 0 50 10 57 48 30z m392 -29 c0 -34 -4 -45 -15 -45 -26 0 -75 29 -75 45 0 19 39 45 67 45 21 0 23 -5 23 -45z m58 29 c36 -25 26 -53 -25 -68 -22 -7 -23 -4 -23 38 0 50 10 57 48 30z m-741 -90 c-3 -3 -20 -4 -39 -2 -33 4 -33 4 2 14 31 9 52 2 37 -12z m900 0 c-3 -3 -20 -4 -39 -2 -33 4 -33 4 2 14 31 9 52 2 37 -12z m-827 6 c11 -7 5 -10 -22 -10 -21 0 -38 5 -38 10 0 13 40 13 60 0z m900 0 c11 -7 5 -10 -22 -10 -21 0 -38 5 -38 10 0 13 40 13 60 0z m-1190 -125 l0 -105 -105 0 -105 0 0 105 0 105 105 0 105 0 0 -105z m75 78 c25 -16 45 -35 45 -44 0 -19 33 -43 73 -53 24 -6 27 -11 27 -46 0 -40 0 -40 -105 -40 l-105 0 0 105 c0 60 4 105 10 105 5 0 30 -12 55 -27z m45 12 c0 -19 -9 -19 -34 0 -19 14 -19 15 7 15 17 0 27 -5 27 -15z m50 5 c-19 -13 -30 -13 -30 0 0 6 10 10 23 10 18 0 19 -2 7 -10z m140 -6 c0 -12 -4 -14 -12 -7 -7 6 -20 13 -28 16 -9 3 -3 6 13 6 19 1 27 -4 27 -15z m79 13 c-2 -2 -16 -11 -31 -20 -27 -17 -28 -17 -28 3 0 16 7 20 32 20 17 0 29 -1 27 -3z m61 -37 c0 -37 -2 -40 -29 -40 -35 0 -81 -35 -81 -61 0 -23 -8 -24 -38 -1 -23 18 -23 18 14 57 37 40 98 82 122 84 8 1 12 -13 12 -39z m128 -22 c84 -51 84 -51 36 -79 -27 -16 -52 -29 -56 -29 -5 0 -8 13 -8 29 0 34 -30 61 -67 61 -20 0 -23 5 -23 41 0 49 -2 50 118 -23z m92 17 c0 -25 -3 -45 -6 -45 -8 0 -144 81 -144 86 0 2 34 4 75 4 75 0 75 0 75 -45z m115 4 c-99 -58 -95 -58 -95 -5 0 46 0 46 83 46 l82 0 -70 -41z m115 1 c0 -37 -2 -40 -29 -40 -36 0 -79 -33 -83 -64 -3 -23 -3 -23 -47 4 -43 27 -43 27 50 83 52 31 97 56 102 57 4 0 7 -18 7 -40z m120 -36 c5 -11 22 -28 40 -36 31 -15 31 -15 -12 -41 -43 -25 -43 -25 -46 9 -4 37 -32 64 -69 64 -20 0 -23 5 -23 41 0 40 0 40 51 12 28 -15 55 -37 59 -49z m0 56 c0 -20 -1 -20 -30 -5 -16 9 -30 18 -30 20 0 3 14 5 30 5 23 0 30 -4 30 -20z m50 10 c-19 -13 -30 -13 -30 0 0 6 10 10 23 10 18 0 19 -2 7 -10z m140 -6 c0 -12 -4 -14 -12 -7 -7 6 -20 13 -28 16 -9 3 -3 6 13 6 19 1 27 -4 27 -15z m65 -4 c-38 -25 -45 -25 -45 0 0 16 7 20 38 20 37 0 37 0 7 -20z m75 -84 c0 -77 -3 -105 -13 -109 -8 -3 -51 17 -96 43 -68 40 -79 49 -62 55 11 3 28 16 38 28 17 21 109 85 126 86 4 1 7 -46 7 -103z m220 -1 l0 -105 -105 0 -105 0 0 105 0 105 105 0 105 0 0 -105z m230 0 l0 -105 -105 0 -105 0 0 105 0 105 105 0 105 0 0 -105z m-1580 40 c0 -44 -1 -45 -27 -39 -56 13 -72 52 -30 72 46 22 57 16 57 -33z m68 29 c31 -21 27 -43 -10 -59 -42 -17 -48 -12 -48 36 0 44 18 51 58 23z m832 -30 c0 -45 0 -46 -27 -39 -56 14 -72 53 -30 73 46 22 57 16 57 -34z m68 30 c32 -22 27 -43 -13 -60 -19 -7 -37 -14 -40 -14 -3 0 -5 20 -5 45 0 50 16 58 58 29z m-738 -74 c0 -14 -7 -20 -23 -20 -12 0 -33 -7 -46 -16 -22 -16 -23 -15 -19 7 2 17 13 27 38 36 48 16 50 16 50 -7z m77 0 c2 0 3 -9 3 -19 0 -17 -3 -18 -35 -8 -23 7 -35 17 -35 28 0 15 5 16 32 8 18 -5 34 -9 35 -9z m373 0 c0 -14 -7 -20 -23 -20 -12 0 -33 -7 -46 -16 -22 -16 -23 -15 -19 7 2 17 13 27 38 36 48 16 50 16 50 -7z m77 0 c2 0 3 -9 3 -19 0 -17 -3 -18 -35 -8 -23 7 -35 17 -35 28 0 15 5 16 32 8 18 -5 34 -9 35 -9z m-682 -47 c60 -37 59 -53 -5 -53 -50 0 -50 0 -50 40 0 22 2 40 5 40 2 0 25 -12 50 -27z m375 -13 c0 -40 0 -40 -62 -40 -47 0 -59 3 -50 12 10 10 103 67 110 68 1 0 2 -18 2 -40z m118 -28 c2 -8 -12 -12 -47 -12 -51 0 -51 0 -51 40 0 39 0 39 47 12 25 -15 48 -33 51 -40z m329 -9 c-3 -2 -31 -3 -63 -1 l-59 3 60 36 c60 35 60 35 63 1 2 -19 1 -36 -1 -39z m138 9 c16 -9 7 -11 -47 -12 -68 0 -68 0 -68 40 0 40 0 40 48 11 26 -16 56 -33 67 -39z m-805 18 c0 -29 -2 -30 -45 -30 -33 0 -45 4 -45 14 0 20 39 46 67 46 19 0 23 -5 23 -30z m61 12 c31 -26 20 -50 -20 -44 -26 4 -31 9 -31 33 0 34 17 37 51 11z m389 -12 c0 -29 -2 -30 -45 -30 -33 0 -45 4 -45 14 0 20 39 46 67 46 19 0 23 -5 23 -30z m61 12 c31 -26 20 -50 -20 -44 -26 4 -31 9 -31 33 0 34 17 37 51 11z m-741 -167 l0 -105 -105 0 -105 0 0 105 0 105 105 0 105 0 0 -105z m179 89 c47 -15 47 -15 50 -105 2 -89 2 -89 -103 -89 l-106 0 0 105 c0 105 0 105 56 105 30 0 77 -7 103 -16z m189 5 c-10 -5 -18 -21 -18 -35 0 -25 0 -25 -39 -2 -35 20 -37 24 -22 35 9 7 34 12 56 12 32 0 36 -2 23 -10z m82 -7 c0 -12 -12 -21 -40 -29 -36 -9 -41 -8 -38 6 3 12 40 32 76 40 1 1 2 -7 2 -17z m78 -5 c6 -5 12 -18 12 -29 0 -18 -2 -18 -22 -4 -12 9 -30 16 -39 16 -12 0 -16 6 -12 19 5 19 34 19 61 -2z m90 10 c31 -13 31 -13 -14 -40 -42 -25 -44 -26 -44 -6 0 11 -5 29 -10 40 -9 16 -7 19 14 19 13 0 37 -6 54 -13z m282 -52 c0 -36 -2 -65 -4 -65 -2 0 -44 24 -94 53 -84 49 -89 54 -69 64 12 6 55 11 95 12 72 1 72 1 72 -64z m208 53 c8 -8 12 -46 12 -105 0 -93 0 -93 -46 -93 -34 0 -60 8 -100 32 -54 33 -54 33 -54 105 0 73 0 73 88 73 55 0 92 -4 100 -12z m242 -93 l0 -105 -105 0 -105 0 0 105 0 105 105 0 105 0 0 -105z m-998 -7 c8 -23 24 -34 81 -52 9 -3 17 -15 17 -26 0 -19 -6 -20 -105 -20 -105 0 -105 0 -105 91 0 90 0 90 51 62 32 -18 55 -38 61 -55z m324 6 c-3 -8 -16 -14 -29 -14 -32 0 -77 -36 -77 -61 0 -18 -2 -19 -30 -4 -16 9 -30 17 -30 19 0 13 78 84 117 107 48 28 48 28 51 -2 2 -17 1 -37 -2 -45z m204 -43 c0 -3 -23 -19 -50 -34 -50 -28 -50 -28 -50 2 0 34 -30 61 -67 61 -20 0 -23 5 -23 44 0 45 0 45 95 -11 52 -30 95 -58 95 -62z m-430 44 c0 -44 -1 -45 -27 -39 -37 9 -53 22 -53 45 0 21 25 38 58 39 20 0 22 -5 22 -45z m68 29 c31 -21 27 -43 -10 -59 -42 -17 -48 -12 -48 36 0 44 18 51 58 23z m162 -73 c0 -13 -9 -20 -27 -23 -16 -3 -36 -9 -45 -13 -13 -5 -18 -3 -18 9 0 10 15 23 33 31 44 19 57 18 57 -4z m49 8 c19 -7 31 -18 31 -28 0 -16 -4 -17 -35 -7 -23 7 -35 17 -35 28 0 21 -1 21 39 7z m260 -66 c2 -2 -14 -3 -37 -3 -38 0 -42 2 -42 26 0 26 0 26 38 3 20 -12 39 -24 41 -26z m-474 17 c30 -20 30 -20 -7 -20 -31 0 -38 4 -38 20 0 25 7 25 45 0z m385 0 c0 -16 -7 -20 -35 -20 -42 0 -44 5 -7 24 36 20 42 20 42 -4z m-220 -10 c0 -5 -17 -10 -37 -10 -28 0 -34 3 -23 10 20 13 60 13 60 0z m60 0 c11 -7 7 -10 -17 -10 -18 0 -33 5 -33 10 0 13 30 13 50 0z m-510 -125 l0 -105 -105 0 -105 0 0 105 0 105 105 0 105 0 0 -105z m220 0 l0 -105 -105 0 -105 0 0 105 0 105 105 0 105 0 0 -105z m120 95 c0 -23 50 -60 80 -60 30 0 30 0 30 -70 0 -70 0 -70 -105 -70 l-105 0 0 105 c0 105 0 105 50 105 28 0 50 -5 50 -10z m110 -20 c0 -28 -2 -30 -27 -24 -77 18 -88 54 -18 54 43 0 45 -1 45 -30z m78 13 c-2 -9 -18 -23 -35 -30 -33 -13 -33 -13 -33 17 0 28 3 30 36 30 28 0 35 -4 32 -17z m140 0 c-2 -10 -16 -20 -35 -24 -43 -9 -63 -26 -63 -55 0 -23 0 -23 -35 -3 -39 24 -44 35 -17 44 11 3 24 17 30 30 10 22 18 25 68 25 47 0 55 -3 52 -17z m163 -10 c27 -16 49 -30 49 -33 0 -3 -23 -18 -50 -33 -45 -26 -50 -26 -50 -9 0 29 -23 53 -60 61 -21 4 -36 14 -38 24 -6 30 89 23 149 -10z m59 7 c0 -20 -1 -20 -30 -5 -16 9 -30 18 -30 20 0 3 14 5 30 5 23 0 30 -4 30 -20z m-220 -50 c0 -14 -7 -20 -21 -20 -11 0 -29 -5 -40 -10 -15 -8 -19 -7 -19 3 0 22 26 39 73 46 4 0 7 -8 7 -19z m78 -3 c11 -8 17 -37 8 -37 -2 0 -20 7 -40 15 -44 19 -51 49 -8 39 15 -4 33 -11 40 -17z m152 -67 c0 -70 0 -70 -86 -70 -87 0 -87 0 -60 21 14 11 26 26 26 34 0 9 92 75 118 84 1 1 2 -30 2 -69z m-380 33 c29 -16 50 -35 50 -45 0 -9 12 -26 26 -37 27 -21 27 -21 -55 -21 -81 0 -81 0 -81 65 0 36 2 65 5 65 3 0 27 -12 55 -27z m150 -47 c0 -45 0 -45 -30 -36 -42 12 -50 19 -50 40 0 22 25 39 58 40 19 0 22 -5 22 -44z m71 25 c23 -19 24 -19 5 -40 -11 -12 -27 -21 -38 -21 -14 0 -18 8 -18 40 0 45 14 51 51 21z"/>
<path d="M618 2129 c-21 -11 -38 -22 -38 -24 0 -5 79 32 89 41 12 11 -18 1 -51 -17z"/>
<path d="M284 1868 c-29 -33 -29 -33 4 -4 17 17 32 31 32 33 0 8 -8 1 -36 -29z"/>
<path d="M1940 1897 c0 -2 15 -16 33 -33 32 -29 32 -29 3 4 -28 30 -36 37 -36 29z"/>
</g>
<g id="layer103" fill="#8dc4e7" stroke="none">
<path d="M1064 1880 c-318 -185 -284 -149 -284 -298 l0 -129 -222 -130 -223 -130 -3 -135 c-3 -136 -3 -136 63 -172 36 -21 65 -43 65 -51 0 -22 50 -55 83 -55 31 0 137 -55 137 -71 0 -23 50 -59 81 -59 36 0 149 -64 149 -85 0 -23 51 -55 86 -55 40 0 130 -52 139 -81 8 -23 54 -49 89 -49 34 0 136 -61 136 -82 0 -9 12 -26 26 -37 50 -40 157 -21 181 31 6 13 38 39 72 58 61 35 61 35 61 171 0 137 0 137 -99 195 -99 59 -99 59 -70 76 16 10 29 22 29 27 0 6 32 29 70 52 70 41 70 41 70 178 l0 136 -215 129 c-119 71 -218 133 -221 138 -3 4 3 8 14 8 11 0 32 10 47 23 16 12 56 38 89 58 61 35 61 35 64 165 1 71 -1 134 -5 139 -5 6 -57 40 -118 76 l-110 65 -181 -106z m166 -43 c0 -122 0 -122 -57 -154 -32 -18 -77 -44 -100 -58 -43 -26 -43 -26 -43 97 0 123 0 123 98 180 53 31 98 57 100 58 1 0 2 -55 2 -123z m127 65 c98 -58 98 -58 101 -184 l3 -127 -103 63 c-103 63 -103 63 -106 184 -1 67 -1 122 2 122 2 0 49 -26 103 -58z m-351 -308 c-3 -9 -161 -107 -198 -122 -4 -2 -8 50 -8 116 0 120 0 120 103 180 l102 60 3 -111 c1 -61 1 -116 -2 -123z m341 51 c51 -31 93 -60 93 -65 0 -8 -82 -60 -94 -60 -3 0 -6 15 -6 34 0 42 -19 63 -65 72 -75 14 -145 -21 -145 -72 0 -25 0 -25 -50 2 -50 27 -50 27 47 85 54 32 105 58 113 58 8 1 56 -24 107 -54z m-33 -51 c19 -18 21 -48 4 -40 -65 26 -89 29 -128 13 -38 -15 -40 -15 -40 4 0 25 31 38 97 38 34 1 57 -4 67 -15z m-232 -56 c29 -18 57 -38 62 -46 4 -8 24 -21 44 -29 35 -15 35 -15 -14 -44 -27 -15 -50 -25 -51 -21 -1 4 -4 20 -7 35 -12 52 -100 72 -166 39 -27 -13 -36 -25 -40 -49 -5 -32 -5 -32 -54 -2 -26 17 -46 32 -45 34 15 13 197 115 206 115 7 0 36 -14 65 -32z m216 6 c30 -21 28 -52 -4 -64 -59 -23 -144 -2 -144 35 0 23 42 45 85 45 22 0 51 -7 63 -16z m-217 -84 c10 -6 19 -19 19 -29 0 -17 -3 -18 -41 -5 -39 14 -67 11 -121 -11 -27 -11 -23 20 4 39 26 18 109 21 139 6z m-301 -147 c-5 -127 -5 -127 -103 -185 -54 -32 -99 -58 -100 -58 -1 0 -1 56 1 125 3 125 3 125 105 185 56 33 102 60 102 60 0 0 -2 -57 -5 -127z m134 44 c2 -10 18 -23 35 -30 17 -6 31 -14 31 -18 0 -3 -21 -18 -47 -32 -27 -15 -67 -38 -90 -52 -43 -26 -43 -26 -43 94 0 120 0 120 54 88 30 -18 57 -40 60 -50z m322 -154 c-2 -3 -48 21 -101 53 -96 57 -96 57 -67 70 17 7 34 19 38 27 5 8 36 31 69 51 60 36 60 36 63 -80 1 -64 1 -119 -2 -121z m224 -13 c0 -69 -4 -130 -8 -136 -4 -5 -31 -24 -59 -42 -53 -32 -53 -32 -53 8 0 34 -4 42 -30 55 -37 19 -103 19 -139 0 -30 -15 -41 -33 -41 -65 0 -17 -4 -16 -47 7 -44 25 -45 27 -22 35 13 5 36 21 50 36 15 15 51 40 81 56 54 29 54 29 151 -29 54 -32 100 -55 103 -52 3 2 -40 31 -95 63 -100 59 -100 59 -101 186 l0 127 105 -62 c104 -62 104 -62 105 -187z m-395 220 c64 -24 28 -80 -52 -80 -54 0 -83 14 -83 40 0 41 74 63 135 40z m-505 -225 c0 -124 0 -124 -82 -173 -145 -85 -128 -92 -128 51 0 123 0 123 103 184 56 34 103 62 105 62 1 1 2 -55 2 -124z m589 47 c82 -50 82 -50 29 -80 -53 -31 -53 -31 -59 0 -10 44 -31 60 -86 65 -64 5 -117 -21 -121 -59 -2 -16 -6 -28 -8 -28 -16 0 -94 54 -87 60 4 5 50 33 102 63 108 63 86 66 230 -21z m436 6 c102 -61 102 -61 104 -185 1 -67 -1 -123 -3 -123 -3 0 -50 27 -105 60 -100 61 -100 61 -103 185 -2 69 -1 125 0 125 2 0 50 -28 107 -62z m-504 -48 c10 -6 19 -19 19 -30 0 -18 -2 -18 -36 -4 -37 16 -108 12 -120 -7 -8 -14 -24 -11 -24 5 0 38 110 63 161 36z m-163 -105 c7 -14 24 -28 43 -32 31 -9 31 -9 -20 -36 -51 -28 -51 -28 -51 7 0 29 -5 38 -30 51 -66 34 -163 10 -177 -45 -8 -29 -8 -29 -55 -2 -47 28 -47 28 58 89 106 61 106 61 163 27 32 -19 63 -46 69 -59z m160 49 c29 -20 28 -40 -3 -60 -51 -33 -165 -2 -149 41 13 34 113 47 152 19z m-240 -65 c17 -6 34 -20 38 -31 8 -28 1 -31 -32 -13 -37 19 -81 19 -117 0 -27 -14 -28 -14 -25 8 2 15 14 26 38 34 45 15 60 15 98 2z m450 0 c17 -6 34 -20 38 -31 8 -28 1 -31 -32 -13 -37 19 -81 19 -117 0 -27 -14 -28 -14 -25 8 2 15 14 26 38 34 45 15 60 15 98 2z m-603 -105 c17 -19 43 -38 58 -42 27 -7 26 -7 -23 -35 -50 -28 -50 -28 -50 -3 0 15 -11 33 -27 46 -54 43 -183 13 -183 -42 0 -10 -3 -18 -6 -18 -12 0 -95 53 -90 57 3 3 49 31 103 63 98 58 98 58 143 33 25 -14 59 -40 75 -59z m325 -44 l0 -119 -95 57 c-95 57 -95 57 -68 71 15 7 34 22 43 33 11 14 103 75 118 77 1 1 2 -53 2 -119z m565 58 c104 -62 104 -62 57 -90 -58 -34 -62 -34 -62 -4 0 15 -11 33 -27 46 -23 18 -38 21 -85 18 -64 -5 -98 -27 -98 -65 0 -24 0 -24 -51 3 -50 28 -50 28 -15 42 20 8 36 18 36 23 0 6 127 89 138 89 2 0 50 -28 107 -62z m-435 -19 c15 -17 39 -33 55 -37 27 -8 24 -11 -68 -64 l-97 -57 0 115 c0 114 0 114 41 93 23 -11 54 -34 69 -50z m-289 51 c28 -15 24 -54 -6 -68 -50 -23 -129 -9 -142 24 -16 41 93 73 148 44z m450 0 c28 -15 24 -54 -6 -68 -50 -23 -129 -9 -142 24 -16 41 93 73 148 44z m-664 -92 c7 -6 13 -19 13 -29 0 -18 -2 -19 -30 -4 -36 19 -71 19 -115 1 -28 -12 -35 -12 -35 -2 0 16 29 42 55 49 28 8 96 -2 112 -15z m900 0 c7 -6 13 -19 13 -29 0 -18 -2 -19 -30 -4 -36 19 -71 19 -115 1 -28 -12 -35 -12 -35 -2 0 16 29 42 55 49 28 8 96 -2 112 -15z m-641 -64 c52 -31 96 -60 99 -64 2 -3 -21 -20 -51 -38 -54 -31 -54 -31 -54 2 0 44 -20 58 -84 64 -63 5 -113 -16 -122 -53 -7 -30 -8 -30 -44 -8 -28 16 -28 16 -1 42 15 14 30 31 32 36 4 11 108 74 122 75 5 0 51 -25 103 -56z m469 -31 c24 -24 52 -43 62 -43 10 0 -3 -13 -32 -30 -50 -29 -50 -29 -55 8 -6 44 -34 62 -98 62 -57 0 -100 -23 -109 -59 -8 -29 -8 -29 -51 -4 -52 31 -52 31 72 101 89 51 89 51 128 29 22 -12 59 -41 83 -64z m-734 39 c55 -46 -48 -96 -125 -61 -34 16 -39 36 -16 59 27 27 108 28 141 2z m900 0 c55 -46 -48 -96 -125 -61 -34 16 -39 36 -16 59 27 27 108 28 141 2z m-665 -73 c8 -6 14 -20 14 -30 0 -18 -2 -19 -30 -4 -36 19 -87 19 -122 1 -26 -14 -28 -13 -28 5 0 42 125 63 166 28z m450 0 c8 -6 14 -20 14 -30 0 -18 -2 -19 -30 -4 -36 19 -87 19 -122 1 -26 -14 -28 -13 -28 5 0 42 125 63 166 28z m-240 -43 c28 -16 58 -42 66 -57 10 -16 30 -31 47 -36 30 -8 30 -8 -20 -35 -49 -28 -49 -28 -49 -4 0 15 -11 33 -26 45 -56 44 -184 16 -184 -40 0 -20 -1 -20 -39 2 -39 22 -39 22 -4 56 36 34 144 104 153 100 3 -1 28 -15 56 -31z m380 -203 c-2 -3 -45 19 -95 48 -74 44 -87 55 -73 63 9 5 31 21 47 36 17 15 50 39 75 53 45 27 45 27 48 -85 1 -61 1 -113 -2 -115z m131 165 c103 -61 103 -61 102 -180 0 -65 -4 -118 -9 -118 -4 0 -50 25 -101 55 -94 54 -94 54 -99 180 -3 69 -3 125 -1 125 3 0 51 -28 108 -62z m-736 32 c23 -13 25 -43 4 -60 -25 -21 -89 -24 -123 -6 -36 19 -39 31 -15 58 18 20 101 25 134 8z m450 0 c23 -13 25 -43 4 -60 -25 -21 -89 -24 -123 -6 -36 19 -39 31 -15 58 18 20 101 25 134 8z m-232 -81 c23 -8 31 -17 31 -34 0 -23 -1 -23 -27 -9 -36 18 -87 18 -123 -1 -23 -12 -30 -13 -30 -3 1 47 79 71 149 47z m284 -78 c99 -58 99 -58 48 -90 -28 -17 -53 -31 -56 -31 -3 0 -5 13 -5 29 0 40 -32 61 -92 61 -63 0 -96 -14 -110 -47 -7 -16 -13 -29 -14 -31 -3 -5 -64 33 -64 41 0 4 7 7 15 7 9 0 23 13 32 29 15 26 114 91 138 90 6 0 54 -26 108 -58z m-270 11 c25 -22 21 -39 -15 -58 -60 -31 -161 3 -137 47 19 36 115 43 152 11z m217 -65 c14 -7 26 -23 28 -35 3 -23 3 -23 -27 -8 -39 21 -100 20 -130 0 -22 -16 -23 -15 -19 7 4 28 41 49 88 49 19 0 46 -6 60 -13z m221 -45 c24 -16 68 -41 97 -57 28 -15 52 -31 52 -34 0 -6 -86 -61 -94 -61 -2 0 -6 13 -9 28 -7 34 -42 52 -102 52 -60 0 -95 -18 -102 -52 -5 -27 -5 -27 -43 -6 -37 22 -37 22 -1 57 37 37 128 99 147 100 5 1 30 -12 55 -27z m-220 -13 c22 -12 25 -42 5 -58 -25 -21 -80 -24 -119 -7 -40 16 -46 34 -19 58 30 28 90 31 133 7z m224 -81 c17 -7 25 -19 25 -35 0 -23 -1 -23 -22 -9 -28 20 -94 20 -130 2 -20 -11 -28 -12 -28 -3 1 46 93 73 155 45z m8 -65 c26 -25 21 -43 -20 -59 -60 -25 -151 4 -136 43 16 41 116 51 156 16z"/>
</g>
<g id="layer104" fill="#b4d8ef" stroke="none">
<path d="M1015 1850 l-220 -129 -5 -133 -5 -133 -222 -130 -223 -130 0 -140 c0 -140 0 -140 60 -173 33 -18 60 -39 60 -47 0 -23 50 -55 87 -55 39 0 143 -61 143 -85 0 -17 50 -45 81 -45 32 0 129 -59 139 -84 12 -33 35 -47 82 -53 54 -7 148 -61 148 -85 0 -21 48 -48 85 -48 35 0 135 -60 135 -81 0 -47 108 -76 168 -45 18 9 32 24 32 35 0 11 24 31 70 57 70 39 70 39 70 175 0 136 0 136 -101 195 -85 50 -98 60 -83 69 10 5 29 22 43 36 14 15 52 41 84 59 57 32 57 32 57 168 l0 137 -227 135 c-192 115 -222 136 -200 140 15 3 35 12 44 20 10 9 48 33 86 55 68 39 68 39 65 179 -3 139 -3 139 -108 202 -58 35 -109 63 -115 63 -5 1 -109 -58 -230 -129z m225 -9 c0 -119 0 -119 -103 -180 -57 -34 -107 -61 -111 -61 -3 0 -6 54 -5 120 1 121 1 121 102 180 56 33 105 60 110 60 4 0 7 -54 7 -119z m124 59 c96 -55 96 -55 96 -180 0 -69 -4 -130 -8 -136 -4 -5 -31 -24 -59 -42 -53 -32 -53 -32 -53 7 0 54 -27 76 -94 76 -67 0 -106 -24 -106 -65 0 -17 -4 -30 -9 -30 -11 0 -103 51 -99 55 2 2 50 30 108 64 98 57 106 60 127 46 73 -49 175 -107 179 -103 2 3 -40 31 -93 64 -98 59 -98 59 -101 182 -2 75 1 123 7 120 5 -1 52 -28 105 -58z m-354 -192 c0 -123 0 -123 -96 -178 -53 -30 -100 -56 -105 -58 -5 -2 -9 48 -9 117 0 120 0 120 102 181 56 33 103 60 105 60 2 0 3 -55 3 -122z m272 -97 c47 -2 65 -97 23 -127 -42 -31 -155 -8 -155 31 0 37 94 60 142 34 11 -6 22 -8 25 -6 2 3 -6 11 -18 18 -29 15 -100 15 -129 -1 -20 -10 -21 -9 -18 12 3 25 56 49 93 43 11 -2 28 -4 37 -4z m-140 -117 c15 -14 42 -29 60 -33 32 -7 32 -7 -20 -39 -29 -18 -57 -32 -62 -32 -6 0 -10 16 -10 36 0 31 -4 37 -37 50 -71 30 -163 -2 -163 -56 0 -30 0 -30 -50 -2 -27 15 -50 29 -50 32 0 3 46 33 103 66 102 61 102 61 152 33 28 -16 62 -40 77 -55z m-61 -34 c10 -6 19 -20 19 -30 0 -22 -10 -26 -27 -9 -12 12 -106 8 -135 -5 -27 -12 -23 19 4 38 26 18 109 21 139 6z m-291 -144 c0 -124 0 -124 -105 -185 -57 -34 -107 -61 -110 -61 -3 0 -5 55 -5 123 0 123 0 123 103 184 56 34 105 62 110 62 4 1 7 -55 7 -123z m109 60 c9 -8 25 -24 35 -36 11 -11 28 -20 38 -20 28 0 15 -14 -45 -48 -28 -16 -69 -40 -89 -52 -38 -22 -38 -22 -38 100 0 121 0 121 42 96 23 -14 49 -32 57 -40z m337 -174 c-3 -3 -49 21 -102 53 -97 58 -97 58 -66 70 16 7 34 21 39 30 5 9 36 32 69 50 59 34 59 34 62 -82 1 -64 0 -118 -2 -121z m224 -12 c0 -69 -4 -130 -8 -136 -4 -7 -31 -26 -59 -43 -53 -30 -53 -30 -53 2 0 17 -4 37 -8 43 -23 35 -98 44 -157 20 -31 -13 -35 -19 -35 -50 0 -20 -3 -36 -6 -36 -3 0 -26 12 -51 27 -45 26 -45 26 -15 39 17 7 35 21 40 31 6 10 40 33 75 52 65 35 65 35 162 -23 53 -32 99 -56 101 -53 3 2 -40 31 -95 63 -101 59 -101 59 -101 186 l0 127 105 -62 c104 -62 104 -62 105 -187z m-382 214 c47 -32 8 -74 -69 -74 -79 0 -114 50 -56 78 33 16 100 14 125 -4z m-522 -340 c-3 -9 -161 -107 -198 -122 -4 -2 -8 52 -8 121 0 124 0 124 103 184 l102 59 3 -115 c1 -63 1 -120 -2 -127z m566 185 c57 -33 105 -62 106 -64 4 -4 -99 -65 -110 -65 -5 0 -8 16 -8 36 0 31 -4 37 -37 51 -72 30 -163 -2 -163 -57 0 -30 0 -30 -51 1 -33 21 -47 35 -41 41 8 8 193 118 199 118 1 0 48 -27 105 -61z m464 -11 c104 -63 104 -63 104 -185 0 -68 -3 -123 -6 -123 -3 0 -53 28 -110 62 -104 63 -104 63 -104 185 0 68 3 123 6 123 3 0 53 -28 110 -62z m-499 -50 c7 -6 13 -18 13 -28 0 -16 -3 -17 -42 -3 -36 12 -47 12 -87 -1 -50 -16 -57 -15 -47 9 15 39 125 55 163 23z m-236 -44 c32 -20 61 -45 64 -54 3 -10 22 -25 42 -32 36 -15 36 -15 -12 -41 -26 -15 -49 -27 -51 -27 -2 0 -4 12 -4 28 0 15 -4 32 -8 38 -23 35 -98 44 -157 20 -29 -13 -35 -20 -35 -45 0 -38 -8 -38 -66 -3 -45 29 -45 29 58 89 57 34 105 61 106 62 2 1 30 -15 63 -35z m227 -10 c12 -8 22 -21 22 -29 0 -24 -42 -45 -90 -45 -43 0 -90 21 -90 40 0 5 10 18 22 30 27 25 103 27 136 4z m-213 -74 c8 -7 15 -21 15 -31 0 -20 -15 -26 -24 -10 -12 19 -83 23 -120 7 -34 -14 -36 -14 -36 5 0 42 123 63 165 29z m450 0 c8 -7 15 -21 15 -31 0 -20 -15 -26 -24 -10 -12 19 -83 23 -120 7 -34 -14 -36 -14 -36 5 0 42 123 63 165 29z m-689 -44 c31 -19 61 -44 68 -57 6 -12 26 -27 44 -34 34 -11 34 -11 -16 -38 -27 -15 -52 -27 -55 -27 -3 0 -7 15 -9 32 -4 43 -37 60 -105 55 -59 -4 -93 -27 -93 -63 0 -24 0 -24 -51 7 -27 17 -47 34 -44 37 5 6 197 121 202 122 1 0 27 -15 59 -34z m382 -155 l-3 -60 -92 56 c-92 57 -92 57 -63 74 15 10 32 24 37 31 4 8 33 28 63 46 55 31 55 31 58 -28 2 -33 2 -87 0 -119z m568 118 c57 -34 103 -63 102 -64 -6 -6 -109 -65 -113 -65 -2 0 -5 17 -7 37 -4 48 -34 65 -105 60 -59 -4 -93 -27 -93 -64 0 -12 -2 -23 -4 -23 -2 0 -25 12 -51 27 -46 25 -47 27 -24 35 13 5 35 20 49 32 20 19 127 86 138 86 1 0 50 -28 108 -61z m-493 26 c25 -14 52 -36 61 -49 8 -14 29 -27 47 -31 17 -4 27 -11 22 -15 -9 -9 -182 -110 -188 -110 -2 0 -4 52 -4 115 0 63 3 115 8 115 5 0 29 -11 54 -25z m-223 -5 c11 -11 17 -26 14 -33 -13 -36 -112 -49 -152 -21 -26 18 -28 31 -5 56 24 26 116 25 143 -2z m450 0 c11 -11 17 -26 14 -33 -13 -36 -112 -49 -152 -21 -26 18 -28 31 -5 56 24 26 116 25 143 -2z m-691 -71 c23 -8 31 -17 31 -34 0 -23 -1 -24 -35 -9 -44 18 -73 18 -109 -1 -33 -18 -40 -15 -31 14 11 35 84 51 144 30z m900 0 c23 -8 31 -17 31 -34 0 -23 -1 -24 -35 -9 -44 18 -73 18 -109 -1 -33 -18 -40 -15 -31 14 11 35 84 51 144 30z m-620 -77 c51 -31 92 -61 91 -67 -2 -5 -25 -22 -51 -38 -49 -27 -49 -27 -49 8 0 28 -5 37 -30 50 -16 8 -47 15 -70 15 -61 0 -100 -24 -100 -60 0 -36 -1 -36 -45 -7 -42 26 -42 30 -10 45 14 6 25 18 25 26 0 14 114 86 135 86 6 -1 52 -26 104 -58z m395 28 c30 -17 62 -42 71 -56 9 -14 30 -31 46 -38 30 -12 30 -12 -21 -40 -50 -27 -50 -27 -50 8 0 29 -5 38 -30 51 -16 8 -47 15 -70 15 -61 0 -100 -24 -100 -60 0 -17 -3 -30 -7 -30 -5 0 -30 13 -56 29 -48 28 -48 28 55 89 57 33 104 61 106 61 1 1 27 -13 56 -29z m-661 -18 c23 -20 22 -38 -5 -56 -39 -27 -128 -17 -150 17 -11 18 11 46 44 55 41 10 88 4 111 -16z m900 0 c23 -20 22 -38 -5 -56 -39 -27 -128 -17 -150 17 -11 18 11 46 44 55 41 10 88 4 111 -16z m-683 -65 c14 -7 26 -23 28 -35 4 -26 3 -26 -34 -7 -37 19 -77 19 -115 -1 -30 -15 -30 -15 -27 8 4 27 41 48 88 48 19 0 46 -6 60 -13z m450 0 c14 -7 26 -23 28 -35 4 -26 3 -26 -34 -7 -37 19 -77 19 -115 -1 -30 -15 -30 -15 -27 8 4 27 41 48 88 48 19 0 46 -6 60 -13z m-219 -53 c33 -19 59 -42 59 -50 0 -15 71 -53 99 -54 8 0 51 -21 95 -47 131 -76 125 -67 76 -98 -65 -41 -70 -41 -70 -7 0 40 -21 55 -84 60 -72 6 -116 -17 -116 -59 0 -30 0 -30 -40 -7 -22 13 -40 26 -40 29 0 3 11 11 25 17 14 6 25 18 25 26 0 8 25 29 56 46 30 18 53 34 50 37 -2 3 -24 -7 -49 -21 -24 -14 -47 -26 -50 -26 -4 0 -7 13 -7 30 0 44 -36 64 -105 58 -59 -5 -95 -28 -95 -60 0 -23 -1 -23 -44 3 -36 21 -36 21 2 56 31 30 138 103 151 103 2 0 30 -16 62 -36z m375 -201 c-3 -3 -46 19 -96 47 -91 53 -91 53 -61 71 16 10 33 24 38 32 4 8 33 28 63 45 55 32 55 32 58 -80 1 -61 1 -113 -2 -115z m131 166 c103 -61 103 -61 103 -186 0 -140 16 -137 -155 -34 -60 36 -60 36 -63 159 -1 67 1 122 5 122 3 0 53 -27 110 -61z m-758 40 c74 -26 47 -89 -38 -89 -114 0 -118 85 -5 99 6 0 25 -4 43 -10z m450 0 c74 -26 47 -89 -38 -89 -114 0 -118 85 -5 99 6 0 25 -4 43 -10z m-204 -91 c16 -7 25 -19 25 -35 0 -23 -1 -23 -30 -8 -36 19 -71 19 -115 1 -26 -11 -35 -12 -35 -3 1 46 93 73 155 45z m9 -68 c23 -23 15 -47 -19 -60 -53 -20 -127 -5 -139 27 -21 53 110 80 158 33z m216 -63 c14 -7 26 -22 28 -35 3 -21 2 -21 -32 -7 -42 18 -74 19 -112 5 -38 -15 -24 -23 15 -9 40 14 106 -2 121 -30 22 -42 -84 -78 -140 -49 -22 12 -25 20 -25 63 0 43 3 51 25 62 32 16 88 16 120 0z m272 -74 c54 -31 97 -61 95 -66 -1 -4 -26 -22 -55 -38 -52 -31 -52 -31 -52 0 0 41 -31 61 -96 61 -57 0 -104 -27 -104 -61 0 -19 -1 -19 -40 3 -41 24 -51 38 -26 38 8 0 24 12 36 28 21 26 116 91 134 92 5 0 54 -26 108 -57z m-48 -63 c22 -8 25 -14 24 -60 -1 -46 -4 -53 -31 -67 -39 -20 -103 -12 -131 16 -20 21 -20 21 2 43 24 24 85 31 132 14 20 -6 22 -6 13 4 -19 21 -96 24 -131 6 -31 -16 -32 -16 -32 3 0 40 92 65 154 41z"/>
<path d="M3 1125 c0 -22 2 -30 4 -17 2 12 2 30 0 40 -3 9 -5 -1 -4 -23z"/>
</g>
<g id="layer105" fill="#d2e8f6" stroke="none">
<path d="M1013 1848 l-223 -131 0 -131 0 -131 -225 -130 -225 -130 2 -139 c3 -140 3 -140 56 -171 29 -17 59 -42 65 -55 15 -29 52 -50 90 -50 38 0 137 -60 137 -82 0 -20 48 -48 84 -48 33 0 136 -61 136 -81 0 -26 36 -50 82 -56 46 -6 148 -60 148 -79 0 -20 37 -45 76 -51 57 -8 141 -58 148 -88 9 -35 59 -58 113 -52 43 5 83 29 83 51 0 6 30 29 68 52 67 40 67 40 70 175 3 135 3 135 -99 194 -88 50 -100 60 -84 69 10 6 32 25 49 42 18 17 55 43 84 59 52 28 52 28 52 164 l-1 136 -226 135 c-190 113 -222 135 -202 141 13 3 44 20 69 36 25 17 64 41 87 54 43 24 43 24 43 161 0 137 0 137 -111 203 -61 36 -114 65 -117 64 -4 0 -107 -59 -229 -131z m447 -128 c0 -69 -4 -130 -8 -136 -4 -7 -31 -26 -59 -43 -53 -30 -53 -30 -53 9 0 40 -26 70 -60 70 -8 -1 0 -7 18 -15 24 -11 32 -20 32 -40 0 -25 -1 -25 -25 -9 -25 16 -100 16 -137 0 -14 -6 -18 -3 -18 13 0 15 10 26 33 36 17 8 25 14 17 15 -33 0 -60 -30 -60 -67 0 -35 0 -35 -47 -8 -27 15 -51 31 -55 34 -4 4 40 35 98 69 l105 62 101 -60 c55 -34 102 -59 104 -58 2 2 -42 31 -96 63 -99 60 -99 60 -100 187 l0 127 105 -62 c104 -62 104 -62 105 -187z m-220 120 c0 -119 0 -119 -94 -174 -140 -83 -127 -88 -124 54 3 123 3 123 98 181 52 31 101 58 108 58 9 1 12 -29 12 -119z m-230 -132 c0 -123 0 -123 -105 -185 l-106 -62 3 127 c3 126 3 126 98 183 52 32 98 58 103 58 4 1 7 -54 7 -121z m142 -220 c16 -18 36 -28 54 -28 24 0 26 -2 14 -13 -8 -8 -36 -26 -62 -41 -48 -27 -48 -27 -48 13 0 43 -24 67 -58 58 -13 -4 -13 -5 4 -6 27 -1 44 -20 44 -49 0 -22 -1 -22 -22 -8 -12 9 -43 16 -68 16 -25 0 -56 -7 -68 -16 -20 -14 -22 -14 -22 2 0 10 7 26 17 36 20 22 11 24 -11 2 -9 -8 -16 -27 -16 -40 0 -25 0 -25 -50 3 -27 15 -49 31 -47 36 1 4 47 34 102 66 100 59 100 59 155 28 30 -17 67 -44 82 -59z m158 52 c26 -26 25 -36 -5 -56 -49 -32 -155 -13 -155 28 0 46 120 68 160 28z m-520 -224 c0 -125 0 -125 -95 -181 -52 -30 -102 -58 -110 -61 -13 -5 -15 12 -15 118 0 125 0 125 103 186 56 33 105 61 110 61 4 1 7 -55 7 -123z m124 45 c8 -19 46 -41 69 -41 7 0 -3 8 -22 18 -43 21 -48 35 -22 61 15 15 34 21 69 21 97 0 126 -63 42 -89 -25 -8 -79 -34 -120 -59 -144 -85 -130 -90 -130 48 0 120 0 120 53 90 28 -16 56 -38 61 -49z m326 -46 c0 -126 0 -126 -62 -165 -63 -40 -63 -40 -66 -2 -3 38 -23 62 -51 62 -10 0 -6 -5 9 -13 30 -15 43 -65 13 -52 -38 17 -113 17 -138 1 -24 -16 -25 -15 -25 2 0 27 29 49 80 60 25 5 36 10 25 11 -30 1 -93 -18 -101 -31 -4 -6 -10 -23 -13 -38 -6 -26 -6 -26 -59 5 -53 32 -53 32 40 85 51 30 100 58 109 63 12 8 41 -5 119 -52 56 -34 104 -60 107 -58 2 3 -37 28 -87 57 -94 55 -113 70 -85 70 9 0 28 12 43 28 26 26 119 90 135 91 4 1 7 -55 7 -124z m138 49 c82 -49 82 -49 82 -178 0 -128 0 -128 -22 -114 -13 8 -60 37 -105 64 -83 49 -83 49 -83 178 0 128 0 128 23 114 12 -8 59 -37 105 -64z m-818 -181 c0 -128 0 -128 -97 -183 -53 -30 -100 -56 -105 -58 -4 -2 -8 53 -8 121 0 125 0 125 103 186 56 33 103 60 105 61 1 0 2 -57 2 -127z m1027 56 c103 -61 103 -61 103 -185 0 -68 -3 -124 -6 -124 -3 0 -52 27 -110 61 -104 61 -104 61 -104 185 0 68 3 124 7 124 4 0 53 -27 110 -61z m-738 -93 c31 -19 62 -44 69 -56 7 -12 27 -27 43 -34 31 -13 31 -13 -14 -39 -25 -15 -48 -27 -51 -27 -3 0 -6 13 -6 28 0 46 -32 67 -100 67 -67 0 -97 -20 -102 -66 -3 -28 -3 -28 -56 5 -54 33 -54 33 50 94 56 34 105 61 107 62 2 0 29 -15 60 -34z m529 -48 c40 -23 71 -46 70 -50 -2 -5 -27 -22 -56 -38 -52 -30 -52 -30 -52 3 0 51 -29 72 -100 72 -68 0 -100 -21 -100 -67 0 -15 -3 -28 -7 -28 -3 0 -26 12 -51 26 -45 27 -45 27 -14 39 16 7 34 21 39 30 5 9 38 33 74 55 64 39 64 39 94 19 17 -10 63 -38 103 -61z m-300 36 c48 -34 15 -73 -63 -74 -53 0 -95 20 -95 45 0 24 42 45 90 45 25 0 56 -7 68 -16z m-213 -74 c8 -7 15 -23 15 -37 0 -23 -1 -23 -22 -9 -12 9 -29 16 -38 16 -8 -1 -1 -7 16 -14 42 -19 51 -46 24 -68 -12 -10 -18 -18 -12 -18 6 0 19 11 29 24 11 13 45 38 76 56 57 32 57 32 57 -89 0 -122 0 -122 -47 -94 -130 75 -154 91 -141 96 7 3 -7 6 -32 6 -84 2 -122 58 -57 86 17 8 26 14 19 15 -7 0 -22 -5 -33 -11 -18 -9 -20 -8 -17 12 2 13 14 29 28 37 30 15 112 11 135 -8z m450 0 c8 -7 15 -23 15 -37 0 -23 -1 -23 -22 -9 -12 9 -29 16 -38 16 -8 -1 -1 -7 16 -14 42 -19 51 -46 24 -68 -12 -10 -18 -18 -13 -18 6 0 18 9 28 19 16 19 130 91 143 91 3 0 52 -28 110 -62 104 -61 104 -61 50 -94 -29 -19 -56 -34 -60 -34 -5 0 -8 16 -8 35 0 28 -5 37 -30 50 -16 8 -46 14 -67 13 -38 -1 -38 -1 -3 -5 60 -6 90 -23 90 -50 0 -20 -3 -22 -19 -13 -11 5 -26 10 -33 10 -7 0 -2 -6 11 -13 13 -6 29 -20 35 -30 9 -15 6 -22 -14 -39 -20 -16 -35 -19 -78 -16 -100 9 -109 57 -16 91 49 18 49 18 9 12 -22 -4 -44 -11 -49 -16 -16 -15 -26 -10 -26 11 0 11 12 26 28 34 15 8 22 15 17 16 -23 0 -55 -32 -55 -56 0 -30 -1 -30 -57 2 -32 20 -41 29 -31 35 8 6 -4 9 -32 9 -84 0 -122 57 -57 85 17 8 26 14 19 15 -7 0 -22 -5 -33 -11 -18 -9 -20 -8 -17 12 2 13 14 29 28 37 30 15 112 11 135 -8z m-686 -46 c34 -20 61 -43 61 -51 0 -8 18 -22 40 -32 40 -18 40 -18 -9 -44 -27 -15 -51 -27 -55 -27 -3 0 -6 13 -6 30 0 36 -40 61 -97 58 -38 -1 -38 -1 -3 -5 60 -6 90 -23 90 -50 0 -20 -3 -22 -19 -13 -11 5 -26 10 -33 10 -7 0 -2 -6 11 -13 13 -6 29 -20 35 -30 9 -15 6 -22 -14 -39 -20 -16 -35 -19 -78 -16 -100 9 -109 57 -16 91 49 18 49 18 9 12 -22 -4 -44 -11 -49 -16 -16 -15 -26 -10 -26 11 0 11 12 26 28 34 15 8 22 15 17 16 -22 0 -55 -32 -55 -55 0 -24 0 -24 -45 2 -25 13 -47 29 -50 33 -4 7 187 129 202 130 1 0 29 -16 62 -36z m513 -55 c14 -15 39 -31 55 -35 47 -11 159 -76 169 -98 5 -12 28 -30 52 -40 42 -19 42 -19 42 -137 l0 -117 -99 56 c-97 56 -99 57 -73 69 15 6 37 23 49 37 12 14 40 34 63 46 22 11 40 23 40 26 0 3 -21 -6 -46 -20 -26 -14 -48 -26 -50 -26 -2 0 -4 13 -4 29 0 30 -22 61 -43 61 -6 0 -1 -7 11 -16 12 -8 22 -24 22 -35 0 -20 -15 -26 -25 -9 -3 6 -14 10 -23 10 -11 0 -5 -7 16 -20 40 -24 41 -45 2 -65 -60 -31 -150 -10 -150 35 0 22 22 36 77 49 24 6 30 9 15 10 -12 1 -38 -6 -57 -13 -33 -14 -35 -14 -35 3 0 28 24 42 82 51 47 7 49 8 15 9 -21 0 -53 -6 -72 -13 -29 -13 -35 -20 -35 -45 0 -38 -8 -38 -66 -2 -46 28 -46 28 55 87 55 32 99 60 96 62 -2 2 -46 -21 -98 -52 -52 -31 -98 -56 -101 -56 -3 0 -6 54 -6 121 0 121 0 121 48 94 26 -15 59 -40 74 -56z m-235 -110 c104 -62 104 -62 46 -95 -58 -33 -58 -33 -64 3 -6 33 -22 53 -44 53 -5 0 1 -7 13 -16 12 -8 22 -24 22 -35 0 -20 -15 -26 -25 -9 -3 6 -14 10 -23 10 -11 0 -5 -7 16 -20 40 -24 41 -45 2 -65 -60 -31 -150 -10 -150 35 0 22 22 36 77 49 24 6 30 9 15 10 -12 1 -38 -6 -57 -13 -33 -14 -35 -14 -35 3 0 28 24 42 82 51 47 7 49 8 15 9 -21 0 -53 -6 -72 -13 -29 -13 -35 -20 -35 -45 0 -17 -2 -31 -4 -31 -12 0 -76 43 -76 50 0 5 9 12 21 15 11 4 24 17 29 29 7 19 110 85 134 86 5 0 56 -28 113 -61z m174 -105 c33 -19 59 -42 59 -50 0 -8 18 -23 40 -33 40 -18 40 -18 -9 -44 -27 -15 -51 -27 -54 -27 -3 0 -7 15 -9 32 -4 43 -37 60 -105 55 -57 -4 -93 -27 -93 -59 0 -23 -7 -23 -54 7 -40 24 -40 24 -14 34 14 5 33 20 41 32 13 17 119 87 136 89 2 0 30 -16 62 -36z m522 -43 c87 -52 87 -52 87 -178 0 -141 18 -136 -152 -38 -68 39 -68 39 -68 168 0 129 0 129 23 115 12 -8 61 -38 110 -67z m-529 -41 c18 -7 26 -17 26 -34 0 -25 -1 -25 -35 -10 -19 7 -45 14 -57 13 -15 -1 -9 -4 15 -10 79 -18 100 -52 55 -83 -12 -9 -17 -16 -11 -16 14 0 43 28 43 40 0 5 30 27 66 48 66 40 66 40 170 -20 57 -34 104 -63 104 -67 0 -6 -93 -61 -104 -61 -3 0 -6 11 -6 24 0 46 -45 71 -111 63 -29 -3 -28 -4 11 -5 52 -2 90 -24 90 -53 0 -23 0 -23 -36 -4 -16 8 -42 14 -59 14 -24 -1 -21 -3 15 -10 80 -16 101 -64 39 -89 -33 -14 -102 -8 -124 10 -23 19 -18 48 13 64 15 8 23 15 19 16 -5 0 -17 -5 -28 -10 -16 -9 -19 -7 -19 9 0 11 10 27 22 35 12 9 18 16 12 16 -21 0 -43 -26 -46 -53 -3 -28 -3 -28 -51 3 -26 16 -61 30 -78 30 -37 0 -89 26 -89 44 0 14 26 40 50 49 12 4 12 6 -2 6 -9 1 -20 -3 -23 -9 -10 -17 -25 -11 -25 10 0 39 93 64 154 40z m493 -201 c124 -73 122 -69 53 -107 -60 -33 -60 -33 -60 -4 0 29 -16 52 -34 52 -6 0 -3 -5 7 -11 9 -5 17 -21 17 -35 0 -24 -1 -24 -30 -9 -36 19 -71 19 -115 1 -33 -14 -35 -14 -35 3 0 28 25 43 88 52 l57 8 -57 -3 c-62 -3 -98 -24 -98 -58 0 -18 -2 -18 -40 3 -45 26 -49 35 -19 44 11 4 25 16 30 28 10 21 111 86 136 87 6 0 51 -23 100 -51z m-47 -124 c55 -28 33 -72 -39 -82 -70 -9 -128 29 -99 64 28 34 91 42 138 18z"/>
</g>
<g id="layer106" fill="#f6fafd" stroke="none">
<path d="M1442 1857 c14 -11 18 -35 21 -138 l3 -124 2 127 c2 123 1 128 -20 138 -21 10 -21 10 -6 -3z"/>
<path d="M1224 1708 c-4 -7 -3 -8 4 -4 6 4 22 2 34 -4 22 -11 22 -10 4 4 -24 19 -32 20 -42 4z"/>
<path d="M1008 1584 c-16 -8 -28 -17 -28 -20 0 -2 9 0 20 6 15 8 26 7 47 -6 26 -15 27 -15 8 1 -11 9 -19 21 -17 26 3 11 3 11 -30 -7z"/>
<path d="M1444 1580 c0 -10 6 -16 13 -13 7 3 13 9 13 13 0 4 -6 10 -13 13 -7 3 -13 -3 -13 -13z"/>
<path d="M1332 1561 c-2 -20 -5 -22 -14 -13 -7 7 -17 12 -22 12 -6 0 0 -7 12 -16 27 -18 28 -31 5 -57 -15 -17 -12 -16 15 3 29 22 45 39 23 25 -6 -3 -12 12 -14 32 -2 21 -4 27 -5 14z"/>
<path d="M1137 1526 c-3 -8 0 -22 7 -32 11 -15 12 -13 8 14 -5 36 -7 38 -15 18z"/>
<path d="M776 1449 c-18 -17 -18 -18 2 -12 11 2 31 -1 43 -7 21 -11 22 -10 9 1 -8 8 -19 19 -25 25 -7 8 -15 6 -29 -7z"/>
<path d="M1239 1453 c0 -5 0 -66 1 -136 1 -103 -2 -127 -12 -121 -7 4 -10 4 -6 -1 4 -4 2 -15 -5 -23 -10 -13 -9 -14 9 -4 12 6 23 10 25 7 2 -2 3 57 1 131 -3 134 -3 135 17 124 29 -15 26 -6 -4 14 -14 9 -25 13 -26 9z"/>
<path d="M908 1412 c-6 -41 1 -45 29 -15 12 13 18 23 13 23 -5 0 -12 -6 -16 -12 -6 -9 -10 -5 -14 12 -6 24 -7 23 -12 -8z"/>
<path d="M1083 1403 c9 -11 17 -27 17 -36 0 -9 -8 -21 -17 -26 -10 -6 -14 -11 -9 -11 5 0 25 16 44 36 23 24 28 33 14 25 -12 -6 -22 -8 -22 -4 0 5 -10 14 -22 22 -22 13 -23 13 -5 -6z"/>
<path d="M548 1314 c-38 -20 -36 -28 2 -9 17 9 30 18 30 20 0 7 -1 6 -32 -11z"/>
<path d="M563 1173 c-1 -95 2 -123 13 -127 8 -3 13 -1 11 4 -1 5 7 16 18 25 20 16 20 16 -2 6 -12 -6 -24 -11 -27 -11 -3 0 -7 51 -9 113 -3 112 -3 112 -4 -10z"/>
<path d="M1464 1185 c0 -66 1 -92 3 -57 2 34 2 88 0 120 -2 31 -3 3 -3 -63z"/>
<path d="M1668 1195 c21 -16 22 -25 22 -146 0 -129 0 -129 -27 -113 -26 15 -27 15 -8 -1 11 -9 19 -20 18 -25 -2 -5 4 -7 12 -3 13 4 15 27 13 140 -3 133 -4 136 -28 151 -25 14 -25 14 -2 -3z"/>
<path d="M779 1183 c-9 -11 -10 -14 -2 -9 7 4 23 2 35 -4 21 -10 21 -10 6 3 -10 8 -15 17 -11 20 3 4 2 7 -4 7 -6 0 -17 -8 -24 -17z"/>
<path d="M911 1147 c-1 -20 -5 -26 -13 -21 -8 5 -8 1 1 -10 13 -16 15 -16 24 -1 5 9 23 23 41 31 17 7 24 13 16 14 -9 0 -25 -7 -37 -15 -20 -14 -22 -14 -26 7 -4 19 -4 19 -6 -5z"/>
<path d="M1084 1132 c12 -14 16 -29 13 -44 -6 -21 -5 -22 8 -5 7 10 22 25 32 33 17 14 16 14 -4 4 -13 -6 -23 -7 -23 -3 0 5 -10 14 -22 22 -23 14 -23 14 -4 -7z"/>
<path d="M858 1064 c13 -9 22 -26 22 -41 0 -23 -2 -24 -17 -12 -14 11 -14 8 2 -11 11 -14 20 -26 21 -27 0 -2 9 4 20 12 16 13 16 14 2 9 -15 -5 -18 0 -18 23 0 28 -25 63 -46 63 -4 0 2 -7 14 -16z"/>
<path d="M1308 1064 c13 -9 22 -26 22 -41 0 -23 -2 -24 -17 -12 -13 11 -13 8 2 -13 23 -32 25 -33 51 -12 18 14 18 15 -3 4 -22 -10 -23 -9 -23 23 0 32 -24 67 -46 67 -4 0 2 -7 14 -16z"/>
<path d="M984 1052 c5 -3 -2 -13 -15 -24 -24 -20 -24 -20 8 -2 27 15 37 16 60 6 26 -11 27 -11 9 3 -11 8 -25 15 -32 15 -7 0 -18 2 -26 3 -7 2 -9 2 -4 -1z"/>
<path d="M670 989 c24 -23 25 -23 31 -4 6 22 -1 38 -8 18 -4 -10 -10 -10 -26 -2 -19 10 -19 9 3 -12z"/>
<path d="M1104 996 c25 -20 42 -20 50 -1 3 8 1 15 -3 15 -5 0 -11 -5 -13 -11 -3 -9 -10 -9 -28 0 -24 11 -24 11 -6 -3z"/>
<path d="M358 943 c-21 -5 -23 -19 -5 -29 6 -4 9 -4 5 1 -4 4 0 14 10 21 18 14 17 14 -10 7z"/>
<path d="M553 943 c9 -2 25 -2 35 0 9 3 1 5 -18 5 -19 0 -27 -2 -17 -5z"/>
<path d="M1453 943 c9 -2 25 -2 35 0 9 3 1 5 -18 5 -19 0 -27 -2 -17 -5z"/>
<path d="M758 923 c6 -2 9 -10 6 -15 -4 -7 -2 -8 4 -4 7 4 22 9 33 11 39 8 33 15 -12 14 -24 0 -38 -3 -31 -6z"/>
<path d="M1213 923 c18 -5 18 -5 0 -19 -16 -13 -14 -13 12 -1 17 8 37 17 45 20 8 3 -5 5 -30 5 -25 0 -37 -2 -27 -5z"/>
<path d="M461 882 c0 -14 -5 -20 -12 -17 -6 4 -5 -2 2 -13 7 -12 13 -20 14 -19 0 1 9 13 20 27 14 17 15 21 3 12 -14 -11 -17 -10 -21 10 -4 23 -4 23 -6 0z"/>
<path d="M1361 866 c0 -22 0 -37 2 -35 1 2 11 15 22 29 14 17 15 21 3 12 -14 -11 -17 -10 -21 10 -3 14 -5 8 -6 -16z"/>
<path d="M1547 846 c5 -23 6 -23 24 -8 21 18 25 27 9 17 -6 -4 -17 -2 -24 4 -11 9 -12 6 -9 -13z"/>
<path d="M778 813 c12 -2 30 -2 40 0 9 3 -1 5 -23 4 -22 0 -30 -2 -17 -4z"/>
<path d="M985 804 c11 -8 34 -22 50 -30 24 -12 27 -12 12 -1 -16 14 -16 15 5 31 23 16 23 16 -4 4 -21 -8 -35 -8 -55 1 -27 11 -27 11 -8 -5z"/>
<path d="M1228 813 c12 -2 30 -2 40 0 9 3 -1 5 -23 4 -22 0 -30 -2 -17 -4z"/>
<path d="M858 794 c13 -9 22 -26 22 -41 0 -23 -2 -24 -17 -12 -13 11 -13 8 2 -12 25 -34 33 -29 27 13 -5 34 -27 68 -46 68 -6 0 0 -7 12 -16z"/>
<path d="M1308 794 c13 -9 22 -26 22 -41 0 -23 -2 -24 -17 -12 -13 11 -13 8 2 -12 25 -34 33 -29 27 13 -5 34 -27 68 -46 68 -6 0 0 -7 12 -16z"/>
<path d="M520 786 c0 -2 18 -6 40 -8 22 -2 40 0 40 4 0 5 -18 8 -40 8 -22 0 -40 -2 -40 -4z"/>
<path d="M1428 783 c6 -2 10 -9 7 -14 -4 -5 1 -6 9 -3 14 5 16 -10 16 -116 0 -77 -4 -119 -10 -115 -5 3 -7 0 -4 -8 2 -7 10 -14 17 -14 9 0 11 35 9 135 -2 86 0 132 7 128 5 -4 12 -2 16 4 4 6 -10 10 -37 9 -24 0 -37 -3 -30 -6z"/>
<path d="M708 744 c-19 -10 -25 -19 -21 -32 8 -24 34 -52 47 -52 6 0 0 7 -12 16 -30 21 -28 50 6 68 15 8 23 15 17 15 -5 0 -22 -6 -37 -15z"/>
<path d="M1163 748 c-13 -6 -23 -15 -23 -20 0 -5 -6 -6 -12 -2 -7 5 -1 -7 13 -26 14 -19 32 -36 40 -38 8 -2 4 3 -8 13 -31 22 -29 51 5 69 31 17 19 20 -15 4z"/>
<path d="M998 673 c12 -2 32 -2 45 0 12 2 2 4 -23 4 -25 0 -35 -2 -22 -4z"/>
<path d="M1678 658 c10 -13 13 -50 10 -147 -2 -71 0 -127 5 -124 4 2 7 62 7 132 0 111 -2 130 -17 142 -16 13 -17 12 -5 -3z"/>
<path d="M750 656 c0 -2 16 -6 35 -8 19 -2 35 0 35 4 0 4 -16 8 -35 8 -19 0 -35 -2 -35 -4z"/>
<path d="M1208 653 c6 -2 9 -10 5 -16 -4 -7 0 -6 10 1 9 8 21 11 26 8 5 -4 12 -2 16 4 4 6 -8 10 -32 9 -21 0 -32 -3 -25 -6z"/>
<path d="M911 596 c0 -22 0 -37 2 -35 1 2 11 14 22 27 15 18 16 22 3 17 -11 -4 -18 0 -21 12 -3 10 -5 0 -6 -21z"/>
<path d="M1073 604 c33 -18 35 -47 5 -69 -13 -10 -17 -15 -9 -13 8 2 26 19 40 38 14 19 20 31 14 26 -7 -4 -13 -3 -13 2 0 5 -11 14 -25 20 -37 17 -45 14 -12 -4z"/>
<path d="M1218 543 c12 -2 32 -2 45 0 12 2 2 4 -23 4 -25 0 -35 -2 -22 -4z"/>
<path d="M1010 511 c20 -4 42 -11 50 -16 13 -8 13 -6 1 8 -8 11 -27 17 -50 16 -36 -1 -36 -1 -1 -8z"/>
<path d="M1331 486 c-1 -25 -3 -27 -18 -15 -13 11 -13 8 2 -13 18 -23 20 -24 23 -7 2 10 1 29 -1 42 -4 18 -5 17 -6 -7z"/>
<path d="M1148 469 c-11 -6 -15 -16 -11 -27 8 -24 34 -52 47 -52 6 0 0 7 -12 16 -24 17 -29 43 -10 62 14 14 9 15 -14 1z"/>
<path d="M1448 403 c12 -2 32 -2 45 0 12 2 2 4 -23 4 -25 0 -35 -2 -22 -4z"/>
<path d="M1236 381 c17 -4 37 -12 45 -16 12 -8 12 -6 0 8 -8 10 -26 17 -45 16 -31 -1 -31 -1 0 -8z"/>
<path d="M1358 344 c-3 -11 -2 -28 2 -38 6 -18 7 -18 13 -3 3 9 3 27 -2 39 -7 20 -8 20 -13 2z"/>
<path d="M1542 321 c11 -17 10 -25 -1 -43 -13 -21 -13 -22 1 -10 26 21 29 51 7 63 -18 9 -19 8 -7 -10z"/>
<path d="M1443 243 c9 -2 25 -2 35 0 9 3 1 5 -18 5 -19 0 -27 -2 -17 -5z"/>
</g>


</svg>