<!DOCTYPE svg PUBLIC "-//W3C//DTD SVG 20010904//EN" "http://www.w3.org/TR/2001/REC-SVG-20010904/DTD/svg10.dtd">
<svg version="1.0" xmlns="http://www.w3.org/2000/svg" viewBox="0 0 12000 12000" preserveAspectRatio="xMidYMid meet">
<g id="layer101" stroke="none">
</g>
<g id="layer102" fill="green" stroke="none">
<path d="M5590 11979 c-459 -42 -659 -74 -1032 -164 -867 -211 -1682 -624 -2388 -1211 -528 -439 -963 -950 -1327 -1557 -113 -190 -326 -623 -406 -827 -288 -733 -421 -1435 -421 -2215 -1 -534 57 -996 189 -1510 230 -895 688 -1754 1310 -2460 114 -129 391 -406 520 -520 850 -750 1897 -1246 3005 -1424 339 -55 607 -76 965 -75 674 0 1277 98 1910 309 477 160 1026 432 1436 711 855 583 1531 1347 1989 2249 435 857 650 1751 650 2705 0 540 -54 975 -187 1500 -44 174 -50 194 -105 365 -205 637 -570 1320 -978 1835 -293 369 -603 684 -965 979 -400 324 -936 646 -1400 840 -82 34 -159 66 -170 71 -67 29 -390 139 -495 169 -436 125 -777 186 -1307 231 -142 12 -655 11 -793 -1z"/>
</g>
<g id="layer103" fill="#111" stroke="none">
<path d="M4793 10182 c-10 -7 -13 -428 -15 -2033 l-3 -2024 -390 -5 c-214 -3 -391 -7 -393 -8 -1 -1 -1 -316 0 -699 l3 -698 390 -5 390 -5 7 -525 c4 -289 11 -577 17 -640 14 -165 28 -266 40 -289 6 -11 11 -31 11 -45 0 -14 4 -35 9 -48 5 -13 15 -50 22 -83 7 -33 15 -64 19 -70 4 -5 14 -32 24 -60 32 -90 120 -255 177 -331 123 -164 250 -274 428 -367 81 -42 275 -117 304 -117 10 0 26 -4 36 -10 22 -11 93 -25 246 -47 92 -13 222 -16 780 -17 l670 -1 3 665 c1 366 0 679 -3 697 l-6 31 -417 5 c-431 5 -478 9 -574 51 -58 25 -107 75 -140 140 -48 100 -59 232 -56 681 l3 380 591 3 c654 2 626 -1 605 64 -5 18 -15 89 -20 158 -24 285 -31 368 -40 435 -6 39 -15 126 -21 195 -6 69 -15 161 -21 204 -5 44 -9 103 -9 131 0 29 -4 65 -9 81 -5 16 -12 55 -16 86 l-6 58 -527 2 -527 3 -3 2033 -2 2032 -783 0 c-430 0 -788 -4 -794 -8z"/>
</g>


</svg>