<!DOCTYPE svg PUBLIC "-//W3C//DTD SVG 20010904//EN" "http://www.w3.org/TR/2001/REC-SVG-20010904/DTD/svg10.dtd">
<svg version="1.0" xmlns="http://www.w3.org/2000/svg" viewBox="0 0 10600 10600" preserveAspectRatio="xMidYMid meet">
<g id="layer101" fill="green" stroke="none">
 <path d="M4955 10580 c-712 -54 -1329 -216 -1940 -510 -926 -444 -1714 -1162 -2242 -2045 -419 -699 -656 -1432 -735 -2270 -27 -294 -15 -810 28 -1145 127 -997 559 -1963 1230 -2750 125 -147 416 -438 564 -564 1269 -1084 2942 -1504 4585 -1151 419 90 807 228 1215 431 402 200 759 436 1095 725 151 129 430 408 559 559 624 729 1046 1629 1200 2557 313 1883 -382 3749 -1849 4965 -320 266 -668 489 -1059 679 -573 277 -1132 436 -1786 505 -170 17 -704 26 -865 14z"/>
 </g>
<g id="layer102" fill="#111" stroke="none">
 <path d="M6610 8444 c-282 -33 -462 -86 -667 -194 l-93 -48 -77 13 c-228 40 -653 45 -879 11 -540 -81 -1030 -294 -1449 -631 -290 -233 -574 -580 -750 -917 -216 -416 -320 -820 -332 -1293 -5 -209 -1 -288 27 -508 l12 -88 -65 -127 c-135 -266 -195 -540 -184 -831 13 -340 103 -625 289 -907 87 -133 294 -344 438 -447 113 -80 319 -184 448 -226 431 -142 906 -106 1318 100 l121 60 107 -16 c359 -53 735 -37 1097 45 522 120 1029 401 1412 784 602 602 907 1409 858 2271 -6 110 -18 228 -25 263 l-14 63 44 76 c88 154 157 351 190 544 23 129 26 445 6 559 -67 373 -227 682 -492 951 -235 238 -571 412 -909 470 -110 19 -356 32 -431 23z m-865 -1099 c280 -43 534 -138 736 -276 90 -60 247 -222 312 -320 241 -364 274 -854 79 -1184 -91 -154 -273 -311 -481 -415 -208 -104 -393 -163 -901 -290 -533 -133 -663 -180 -773 -280 -72 -66 -91 -114 -85 -213 9 -143 89 -256 229 -326 118 -59 205 -76 389 -76 315 1 498 77 755 316 217 200 282 238 425 247 206 11 355 -69 433 -235 27 -59 31 -77 30 -157 0 -106 -27 -189 -93 -292 -52 -78 -194 -217 -290 -281 -331 -222 -803 -346 -1320 -347 -239 0 -379 18 -574 75 -121 36 -338 139 -421 202 -107 80 -240 218 -299 308 -138 214 -192 420 -183 699 6 187 20 245 92 396 45 93 68 126 136 198 233 246 483 357 1207 537 201 50 420 109 487 131 230 76 371 169 425 282 63 131 25 296 -99 437 -72 83 -227 159 -386 190 -112 22 -360 18 -466 -8 -219 -55 -335 -139 -575 -418 -184 -214 -278 -275 -430 -283 -119 -6 -171 13 -255 97 -79 79 -105 138 -114 262 -11 131 26 270 106 406 48 80 208 239 310 306 262 173 624 289 1019 327 130 12 453 4 575 -15z"/>
 </g>

</svg>